#!OML:ASF X:\für Bonn\!DataBase\2005_08_12_Daniel\c3d\Daniel.ASF
:FULLY-SPECIFIED
:DEGREES
191
root 1.42784 17.2158 16.989 -8.88229 35.5506 -1.01055
lowerback 25.0374 -1.93352 -6.45385
upperback 9.76985 -3.85417 -3.89888
thorax -2.90784 -1.82968 0.460854
lowerneck 6.19682 -1.59958 0.329558
upperneck 18.1503 -2.0421 0.730214
head 4.98648 -0.88284 0.150934
rclavicle -7.23576e-014 5.56597e-014
rhumerus -56.6155 -6.39247 -83.941
rradius 127.558
rwrist -16.2029
rhand 2.61415 17.262
rfingers 7.12502
rthumb 28.0918 -10.6543
lclavicle -7.23576e-014 5.56597e-014
lhumerus -28.1998 20.1236 83.268
lradius 45.6685
lwrist -7.10919
lhand -9.69351 -7.23391
lfingers 7.12502
lthumb 16.2788 22.1028
rfemur -0.50132 -13.1998 19.4113
rtibia 32.6291
rfoot -29.4479 -16.4316
rtoes -8.98202
lfemur -15.5751 -16.8122 -12.7665
ltibia 39.8091
lfoot -17.9549 -16.8388
ltoes -12.9395
192
root 1.39015 17.1892 16.9623 -9.03324 35.9506 -1.09781
lowerback 25.7709 -1.91323 -6.38498
upperback 10.0238 -3.8344 -3.8861
thorax -2.98502 -1.80994 0.450432
lowerneck 6.27802 -1.49823 0.168767
upperneck 17.8982 -1.88697 0.596888
head 4.87337 -0.82411 0.138261
rclavicle 1.51076e-014 6.36111e-015
rhumerus -57.0795 -7.10459 -85.7258
rradius 126.034
rwrist -14.5807
rhand 1.74337 17.5888
rfingers 7.12502
rthumb 27.2591 -10.4612
lclavicle 1.51076e-014 6.36111e-015
lhumerus -28.0455 19.91 83.6189
lradius 46.3337
lwrist -6.70312
lhand -9.90454 -7.01176
lfingers 7.12502
lthumb 16.0756 22.3414
rfemur -0.928364 -13.9758 19.3362
rtibia 33.4042
rfoot -29.534 -16.0409
rtoes -8.94076
lfemur -16.0714 -16.8587 -12.6306
ltibia 40.3345
lfoot -17.9416 -17.0874
ltoes -12.8431
193
root 1.35269 17.1629 16.9357 -9.17697 36.3458 -1.1849
lowerback 26.4892 -1.88501 -6.28833
upperback 10.2884 -3.79424 -3.89286
thorax -3.04339 -1.77913 0.395999
lowerneck 6.33106 -1.41856 0.0353113
upperneck 17.6535 -1.76325 0.473453
head 4.76911 -0.777855 0.123224
rclavicle 1.35174e-014 -1.1609e-013
rhumerus -57.2712 -7.59238 -87.3362
rradius 124.308
rwrist -13.0617
rhand 0.783074 17.9117
rfingers 7.12502
rthumb 26.3402 -10.2792
lclavicle 1.35174e-014 -1.1609e-013
lhumerus -27.8473 19.6622 83.9395
lradius 46.9452
lwrist -6.38343
lhand -10.1502 -6.74766
lfingers 7.12502
lthumb 15.839 22.6245
rfemur -1.36593 -14.7215 19.2639
rtibia 34.1821
rfoot -29.6374 -15.6568
rtoes -8.92812
lfemur -16.5792 -16.9453 -12.4976
ltibia 40.8641
lfoot -17.9298 -17.3174
ltoes -12.7889
194
root 1.31518 17.1358 16.9084 -9.33336 36.7007 -1.31667
lowerback 27.2003 -1.84523 -6.17698
upperback 10.5413 -3.73351 -3.87881
thorax -3.1077 -1.73797 0.349132
lowerneck 6.42478 -1.33726 -0.135014
upperneck 17.3948 -1.64076 0.363613
head 4.65313 -0.733455 0.119475
rclavicle -3.97569e-015 7.31528e-014
rhumerus -57.3606 -7.83211 -88.7619
rradius 122.547
rwrist -11.6929
rhand -0.108629 18.1948
rfingers 7.12502
rthumb 25.4863 -10.1209
lclavicle -3.97569e-015 7.31528e-014
lhumerus -27.6336 19.4628 84.2419
lradius 47.4771
lwrist -6.1629
lhand -10.3894 -6.54178
lfingers 7.12502
lthumb 15.6087 22.8485
rfemur -1.8275 -15.4394 19.2408
rtibia 34.9635
rfoot -29.7245 -15.2774
rtoes -8.8633
lfemur -17.0985 -17.0251 -12.318
ltibia 41.4037
lfoot -17.9176 -17.5362
ltoes -12.6191
